<svg xmlns="http://www.w3.org/2000/svg" viewBox="0 0 129.31 201.64"><defs><style>.cls-1{fill:#fff;}.cls-2{fill:none;stroke:#fff;stroke-miterlimit:10;}</style></defs><title>q1-white</title><g id="Layer_2" data-name="Layer 2"><g id="Footer"><path class="cls-1" d="M92.47,97.82c-2.1,7.18-4.83,11.76-8.2,14.88s-8.78,5.85-17.62,5.85c-13.8,0-25.25-8.21-41.91-13.8-1.21-.38-2.35-.64-3.12-.89a36.3,36.3,0,0,1-10.81,1.9c-3.56,0-6-.76-6-2.6,0-1.66,2.23-2.74,7.06-2.74a50,50,0,0,1,9.79,1.08c6.05-1.59,9.86-4.07,14.69-5.85C14.37,93.49,0,76.51,0,48.72,0,19.59,17.17,0,41.4,0,66.14,0,82.68,17.36,82.68,47.19c0,27.48-15.27,46.43-37.27,48.53v.06c-7.82.89-11.58,4.13-19.27,6.36,13,2.61,31.16,6.23,41.27,6.23,12.53,0,19.15-3.5,23.09-11.32ZM41.78,93.55c16.92,0,27.86-18.88,27.86-45.85C69.64,20,56.92,2.35,40.89,2.35,23.91,2.35,13,21.24,13,48.21,13,75.94,25.76,93.55,41.78,93.55Z"/><path class="cls-1" d="M117.54,58.11c0,7.83,3.29,10,11.77,10v2.56c-3.35-.12-10.27-.47-16.9-.47-7.59,0-15,.35-18.82.47V68.15c8.07,0,13-2.09,13-10V28.49c0-11.71-3.16-13.2-14.21-13.2V12.6c11.77-.24,19-1.85,25.2-6.21Z"/><line class="cls-2" x1="15.14" y1="201.29" x2="118.12" y2="98.31"/><path class="cls-1" d="M42.54,157.9c0,2.56,1.08,3.29,3.85,3.29V162c-1.09,0-3.36-.16-5.53-.16-2.48,0-4.92.12-6.16.16v-.84c2.64,0,4.24-.69,4.24-3.29v-9.69c0-3.83-1-4.32-4.65-4.32V143c3.85-.08,6.22-.61,8.25-2Z"/><path class="cls-1" d="M94.8,145.41c0,3.13-2.93,5.53-6,6.61,3.72.08,7.41,1.95,7.41,6.08,0,6.1-8,10-14.82,10v-.73c5.48-.11,11-3.32,11-9.24,0-3.11-1.64-5.4-4.24-5.59a6.37,6.37,0,0,1-1.88.58c-.45,0-.64-.19-.64-.5,0-.49.46-.77,1-.77s.88.12,1.41.16a7.18,7.18,0,0,0,3.07-5.77c0-2.52-1.35-3.59-3.48-3.59a5.85,5.85,0,0,0-5.32,3.55l-.68-.31c1.21-2.62,3.36-5,7.33-5C92.36,140.86,94.8,142.58,94.8,145.41Z"/><path class="cls-1" d="M112.86,145.41c0,3.13-2.93,5.53-6,6.61,3.71.08,7.41,1.95,7.41,6.08,0,6.1-8,10-14.82,10v-.73c5.48-.11,11-3.32,11-9.24,0-3.11-1.65-5.4-4.24-5.59a6.46,6.46,0,0,1-1.88.58c-.45,0-.65-.19-.65-.5,0-.49.47-.77,1-.77s.88.12,1.41.16a7.18,7.18,0,0,0,3.07-5.77c0-2.52-1.35-3.59-3.48-3.59a5.85,5.85,0,0,0-5.32,3.55l-.68-.31c1.21-2.62,3.36-5,7.33-5C110.42,140.86,112.86,142.58,112.86,145.41Z"/></g></g></svg>