<svg xmlns="http://www.w3.org/2000/svg" viewBox="0 0 141.51 201.64"><defs><style>.cls-1{fill:#fff;}.cls-2{fill:none;stroke:#fff;stroke-miterlimit:10;}</style></defs><title>q2-white</title><g id="Layer_2" data-name="Layer 2"><g id="Footer"><path class="cls-1" d="M92.47,97.82c-2.1,7.18-4.83,11.76-8.2,14.88s-8.78,5.85-17.62,5.85c-13.8,0-25.25-8.21-41.91-13.8-1.21-.38-2.35-.64-3.12-.89a36.3,36.3,0,0,1-10.81,1.9c-3.56,0-6-.76-6-2.6,0-1.66,2.23-2.74,7.06-2.74a50,50,0,0,1,9.79,1.08c6.05-1.59,9.86-4.07,14.69-5.85C14.37,93.49,0,76.51,0,48.72,0,19.59,17.17,0,41.4,0,66.14,0,82.68,17.36,82.68,47.19c0,27.48-15.27,46.43-37.27,48.53v.06c-7.82.89-11.58,4.13-19.27,6.36,13,2.61,31.16,6.23,41.27,6.23,12.53,0,19.15-3.5,23.09-11.32ZM41.78,93.55c16.92,0,27.86-18.88,27.86-45.85C69.64,20,56.92,2.35,40.89,2.35,23.91,2.35,13,21.24,13,48.21,13,75.94,25.76,93.55,41.78,93.55Z"/><path class="cls-1" d="M134.8,21.44c0,16.25-21.8,27.77-30.69,39.84H129c6.69,0,7.59-1.56,8.18-6.21h2.09c0,8.66.12,12.48.48,16.24-2.21-.48-10.87-.6-18.21-.6H92.82V68.62c9.91-10.63,30.1-24.3,30.1-44.49,0-9.32-4.66-13.2-12.24-13.2-6.45,0-12.07,3.76-16.37,11.47l-2-1.08C96,13.62,103.27,6,116.47,6,127.7,6,134.8,11.53,134.8,21.44Z"/><line class="cls-2" x1="26.8" y1="201.29" x2="129.78" y2="98.31"/><path class="cls-1" d="M26.39,145.41c0,3.13-2.93,5.53-6,6.61,3.71.08,7.41,1.95,7.41,6.08,0,6.1-8,10-14.82,10v-.73c5.48-.11,11-3.32,11-9.24,0-3.11-1.65-5.4-4.24-5.59a6.46,6.46,0,0,1-1.88.58c-.45,0-.65-.19-.65-.5,0-.49.47-.77,1-.77s.88.12,1.41.16a7.18,7.18,0,0,0,3.07-5.77c0-2.52-1.35-3.59-3.48-3.59A5.85,5.85,0,0,0,14,146.17l-.68-.31c1.21-2.62,3.36-5,7.33-5C24,140.86,26.39,142.58,26.39,145.41Z"/><path class="cls-1" d="M43.92,159.88v7.8h-3.2v-7.82H30.28V159l13-18.16h.64v16.32h.49c2.19,0,2.48-.51,2.68-2h.68a45.8,45.8,0,0,0,.16,4.92A29.88,29.88,0,0,0,43.92,159.88Zm-3.2-14.12-8.08,11.42h8.08Z"/><path class="cls-1" d="M107.49,157.9c0,2.56,1.07,3.29,3.85,3.29V162c-1.1,0-3.36-.16-5.53-.16-2.49,0-4.93.12-6.16.16v-.84c2.64,0,4.24-.69,4.24-3.29v-9.69c0-3.83-1-4.32-4.65-4.32V143c3.85-.08,6.21-.61,8.25-2Z"/><path class="cls-1" d="M122.3,157.9c0,2.56,1.08,3.29,3.85,3.29V162c-1.09,0-3.36-.16-5.53-.16-2.48,0-4.93.12-6.16.16v-.84c2.64,0,4.24-.69,4.24-3.29v-9.69c0-3.83-1-4.32-4.65-4.32V143c3.85-.08,6.22-.61,8.25-2Z"/><path class="cls-1" d="M139.87,139.41c0,3.05,0,4.52.16,5.85a45.84,45.84,0,0,0-5.55-.2h-4.26l-.47,7.72a9.24,9.24,0,0,1,4.69-1.21c4.83,0,7.07,2.66,7.07,6.18,0,6.19-7,10.2-13.21,10.2v-.72c4.69,0,9.4-3,9.4-9.09,0-3.37-1.8-5.36-5-5.36a7.74,7.74,0,0,0-3.29.69l-.39-.26.77-11.92a11.89,11.89,0,0,0,2.15.15h4.53c2.21,0,2.48-.5,2.68-2Z"/></g></g></svg>