<svg xmlns="http://www.w3.org/2000/svg" viewBox="0 0 149.84 201.68"><defs><style>.cls-1{fill:#0071b9;}.cls-2{fill:none;stroke:#0071b9;stroke-miterlimit:10;stroke-width:1.11px;}</style></defs><title>Asset 3</title><g id="Layer_2" data-name="Layer 2"><g id="Footer"><path class="cls-1" d="M92.47,97.81c-2.1,7.19-4.83,11.77-8.2,14.89s-8.78,5.85-17.62,5.85c-13.8,0-25.25-8.21-41.91-13.8-1.21-.38-2.35-.64-3.12-.89a36.3,36.3,0,0,1-10.81,1.9c-3.56,0-6-.76-6-2.6,0-1.66,2.23-2.74,7.06-2.74a50,50,0,0,1,9.79,1.08c6.05-1.59,9.86-4.07,14.69-5.85C14.37,93.49,0,76.51,0,48.72,0,19.59,17.17,0,41.4,0,66.14,0,82.68,17.36,82.68,47.19c0,27.47-15.27,46.43-37.27,48.53v.06c-7.82.89-11.58,4.13-19.27,6.36,13,2.61,31.16,6.23,41.27,6.23,12.53,0,19.15-3.5,23.09-11.32ZM41.78,93.55c16.92,0,27.86-18.89,27.86-45.85C69.64,20,56.92,2.35,40.89,2.35,23.91,2.35,13,21.24,13,48.21,13,75.94,25.76,93.55,41.78,93.55Z"/><path class="cls-1" d="M132,20c0,9.55-9,16.9-18.22,20.19,11.35.23,22.64,6,22.64,18.57,0,18.63-24.37,30.46-45.27,30.46V87c16.72-.36,33.62-10.15,33.62-28.25,0-9.5-5-16.48-13-17.08-2.45.95-4.3,1.79-5.73,1.79s-2-.6-2-1.55c0-1.5,1.43-2.33,3.16-2.33,1.37,0,2.69.36,4.3.48C118.14,35,121,28.61,121,22.4c0-7.71-4.12-11-10.63-11-6.69,0-12.49,3.52-16.25,10.87l-2.09-1c3.7-8,10.27-15.29,22.4-15.29C124.53,6,132,11.29,132,20Z"/><line class="cls-2" x1="26.66" y1="201.29" x2="129.64" y2="98.31"/><path class="cls-1" d="M11,159.47c0,2.56,1.08,3.28,3.85,3.28v.84c-1.09,0-3.36-.16-5.53-.16-2.48,0-4.92.12-6.15.16v-.84c2.63,0,4.24-.68,4.24-3.28v-9.7c0-3.83-1-4.32-4.65-4.32v-.88c3.85-.08,6.21-.6,8.24-2Z"/><path class="cls-1" d="M25.83,159.47c0,2.56,1.07,3.28,3.85,3.28v.84c-1.1,0-3.36-.16-5.53-.16-2.48,0-4.93.12-6.16.16v-.84c2.64,0,4.24-.68,4.24-3.28v-9.7c0-3.83-1-4.32-4.65-4.32v-.88c3.85-.08,6.22-.6,8.25-2Z"/><path class="cls-1" d="M49.69,154.78c0,6-4,9.38-8.81,9.38-5.09,0-8.15-4.17-8.15-11.38,0-12.08,8.15-17.08,13.56-18.14l.16.8c-4,1.27-8.84,3.93-9.72,13.9a6.5,6.5,0,0,1,5.75-3.28C46.21,146.06,49.69,149.19,49.69,154.78Zm-3.89.29c0-5.77-1.95-7.86-4.32-7.86a5.1,5.1,0,0,0-4.82,3.46c0,.65-.06,1.33-.06,2,0,8.45,2.48,10.66,4.69,10.66S45.8,161,45.8,155.07Z"/><path class="cls-1" d="M106.81,159.47c0,2.56,1.07,3.28,3.85,3.28v.84c-1.1,0-3.36-.16-5.53-.16-2.49,0-4.93.12-6.16.16v-.84c2.64,0,4.24-.68,4.24-3.28v-9.7c0-3.83-1-4.32-4.65-4.32v-.88c3.85-.08,6.21-.6,8.25-2Z"/><path class="cls-1" d="M127.27,147.46c0,5.32-7.13,9.09-10,13h8.13c2.19,0,2.49-.51,2.68-2h.69c0,2.83,0,4.08.15,5.32a52.32,52.32,0,0,0-6-.2h-9.38v-.68c3.24-3.48,9.85-8,9.85-14.57,0-3-1.52-4.31-4-4.31-2.11,0-4,1.23-5.35,3.75l-.65-.35a8.32,8.32,0,0,1,7.9-5C124.94,142.42,127.27,144.22,127.27,147.46Z"/><path class="cls-1" d="M149.84,154.78c0,6-4,9.38-8.81,9.38-5.08,0-8.15-4.17-8.15-11.38,0-12.08,8.15-17.08,13.56-18.14l.16.8c-4,1.27-8.84,3.93-9.72,13.9a6.5,6.5,0,0,1,5.75-3.28C146.36,146.06,149.84,149.19,149.84,154.78Zm-3.89.29c0-5.77-1.95-7.86-4.32-7.86a5.1,5.1,0,0,0-4.82,3.46c0,.65-.06,1.33-.06,2,0,8.45,2.48,10.66,4.69,10.66C143.8,163.36,146,161,146,155.07Z"/></g></g></svg>