<svg xmlns="http://www.w3.org/2000/svg" viewBox="0 0 146.75 201.68"><defs><style>.cls-1{fill:#0071b9;}.cls-2{fill:none;stroke:#0071b9;stroke-miterlimit:10;stroke-width:1.11px;}</style></defs><title>Asset 4</title><g id="Layer_2" data-name="Layer 2"><g id="Footer"><path class="cls-1" d="M93.21,97.82C91.11,105,88.37,109.58,85,112.7s-8.77,5.85-17.61,5.85c-13.81,0-25.25-8.21-41.92-13.8-1.2-.38-2.35-.64-3.11-.89a36.35,36.35,0,0,1-10.81,1.9c-3.57,0-6.05-.76-6.05-2.6,0-1.66,2.23-2.74,7.06-2.74a50.08,50.08,0,0,1,9.8,1.08c6-1.59,9.86-4.07,14.69-5.85C15.11,93.49.73,76.51.73,48.72.73,19.59,17.91,0,42.14,0,66.88,0,83.41,17.36,83.41,47.19c0,27.48-15.26,46.43-37.27,48.53v.06c-7.82.89-11.57,4.13-19.27,6.36,13,2.61,31.17,6.23,41.28,6.23,12.53,0,19.14-3.5,23.09-11.32ZM42.52,93.55c16.92,0,27.85-18.88,27.85-45.85C70.37,20,57.66,2.35,41.63,2.35c-17,0-27.92,18.89-27.92,45.86C13.71,75.94,26.49,93.55,42.52,93.55Z"/><path class="cls-1" d="M131.12,64.14V88h-9.8V64.08H89.43V61.52L129.15,6h2V55.9h1.49c6.69,0,7.59-1.55,8.18-6.21h2.09a143,143,0,0,0,.48,15C141.75,64.32,136.61,64.2,131.12,64.14ZM121.32,21,96.66,55.9h24.66Z"/><line class="cls-2" x1="24.07" y1="201.29" x2="127.05" y2="98.31"/><path class="cls-1" d="M8.25,159.47c0,2.56,1.07,3.28,3.85,3.28v.84c-1.1,0-3.36-.16-5.53-.16-2.48,0-4.93.12-6.16.16v-.84c2.64,0,4.24-.68,4.24-3.28v-9.7c0-3.83-1-4.32-4.65-4.32v-.88c3.85-.08,6.22-.6,8.25-2Z"/><path class="cls-1" d="M28.71,147.46c0,5.32-7.13,9.09-10,13H26.8c2.19,0,2.48-.51,2.67-2h.69c0,2.83,0,4.08.15,5.32a52.32,52.32,0,0,0-6-.2H15v-.68c3.25-3.48,9.85-8,9.85-14.57,0-3-1.52-4.32-4-4.32-2.12,0-3.95,1.24-5.36,3.76l-.65-.35a8.33,8.33,0,0,1,7.9-5C26.39,142.42,28.71,144.22,28.71,147.46Z"/><path class="cls-1" d="M48,143.85c-2.29,5.45-7,11.3-6.92,20.46,0,1.27.16,2.33.16,3.17a1.87,1.87,0,0,1-1.88,2c-1.25,0-1.8-1.07-1.8-2.24,0-8,5-14.66,8.6-20.9H36.72c-2.2,0-2.48.49-2.69,2h-.69c0-2.85,0-4.36-.15-5.61a52.54,52.54,0,0,0,6,.2H48Z"/><path class="cls-1" d="M104,159.47c0,2.56,1.08,3.28,3.85,3.28v.84c-1.09,0-3.36-.16-5.53-.16-2.48,0-4.93.12-6.16.16v-.84c2.64,0,4.24-.68,4.24-3.28v-9.7c0-3.83-1-4.32-4.65-4.32v-.88c3.85-.08,6.22-.6,8.25-2Z"/><path class="cls-1" d="M121.61,141c0,3,0,4.51.16,5.84a45.74,45.74,0,0,0-5.55-.2H112l-.47,7.73a9.13,9.13,0,0,1,4.69-1.22c4.83,0,7.07,2.66,7.07,6.18,0,6.2-7,10.2-13.21,10.2v-.72c4.69,0,9.4-3,9.4-9.09,0-3.36-1.8-5.35-5-5.35a7.66,7.66,0,0,0-3.28.68l-.4-.25.77-11.93a11.84,11.84,0,0,0,2.15.16h4.53c2.21,0,2.48-.51,2.68-2Z"/><path class="cls-1" d="M146.75,152.94c0,6.41-4.09,11.22-10.13,11.22-5.57,0-9.69-4.13-9.69-10.58s4-11.16,10.14-11.16C142.7,142.42,146.75,146.59,146.75,152.94Zm-15.93.53c0,7.19,2.85,10,6.17,10s5.89-3.85,5.89-10.37c0-7.16-2.86-9.93-6.18-9.93S130.82,146.94,130.82,153.47Z"/></g></g></svg>