<svg xmlns="http://www.w3.org/2000/svg" viewBox="0 0 310.29 29.41"><defs><style>.cls-1{fill:#fff;}</style></defs><title>WR_LogoType</title><g id="Layer_2" data-name="Layer 2"><g id="Pop_Outs" data-name="Pop Outs"><g id="WR_LogoType"><path class="cls-1" d="M138.42,1.74h-3.87a.21.21,0,0,0-.21.21V25.14l4.19,4.19a.2.2,0,0,0,.09-.16V2A.2.2,0,0,0,138.42,1.74Zm33.45,0H168a.2.2,0,0,0-.2.21V19.23L149.48.06a.22.22,0,0,0-.23,0,.21.21,0,0,0-.13.2V27.56a.21.21,0,0,0,.2.21h3.87a.21.21,0,0,0,.21-.21V10.15l18.32,19.11a.18.18,0,0,0,.15.07l.08,0a.21.21,0,0,0,.13-.19V2A.21.21,0,0,0,171.87,1.74Zm-45.6,0h-4.2a.21.21,0,0,0-.19.13L115,18.49,108.52.63a.21.21,0,0,0-.2-.13h0a.21.21,0,0,0-.19.13l-6.78,17.86L94.88,1.87a.21.21,0,0,0-.19-.13h-4.2a.22.22,0,0,0-.17.09.2.2,0,0,0,0,.2l10.88,27.25a.21.21,0,0,0,.19.13.2.2,0,0,0,.2-.13l6.66-17.64,6.4,17.62a.2.2,0,0,0,.19.13.19.19,0,0,0,.2-.12L126.46,2a.2.2,0,0,0,0-.2A.21.21,0,0,0,126.27,1.74Zm-110.43,0H.21A.21.21,0,0,0,0,2V5.58a.21.21,0,0,0,.21.21H5.89V27.56a.21.21,0,0,0,.21.21H10a.21.21,0,0,0,.21-.21V5.79h5.67a.2.2,0,0,0,.2-.21V2A.2.2,0,0,0,15.84,1.74Zm51.83,0H53.54a.21.21,0,0,0-.21.21V27.56a.22.22,0,0,0,.21.21H67.67a.21.21,0,0,0,.21-.21V23.93a.21.21,0,0,0-.21-.21H57.61V15.58h9.77a.21.21,0,0,0,.2-.21V11.73a.2.2,0,0,0-.2-.2H57.61V5.79H67.67a.21.21,0,0,0,.21-.21V2A.21.21,0,0,0,67.67,1.74Zm-24.51,0H39.29a.21.21,0,0,0-.21.21v9.81H28.45V2a.2.2,0,0,0-.2-.21H24.38a.21.21,0,0,0-.21.21V27.56a.22.22,0,0,0,.21.21h3.87a.21.21,0,0,0,.2-.21V15.81H39.08V27.56a.22.22,0,0,0,.21.21h3.87a.22.22,0,0,0,.21-.21V2A.21.21,0,0,0,43.16,1.74Zm230.64-.5A13.17,13.17,0,0,0,263.34,6a13.4,13.4,0,0,0-3.28,8.86A13,13,0,0,0,264,24.34a13.1,13.1,0,0,0,9.52,3.89,14.22,14.22,0,0,0,7.06-1.9.21.21,0,0,0,.11-.18V21.49a.22.22,0,0,0-.12-.19.22.22,0,0,0-.22,0,19.5,19.5,0,0,1-1.78,1.35,10.5,10.5,0,0,1-1.63.88,8.09,8.09,0,0,1-3.38.64A8.82,8.82,0,0,1,267,21.49a9.18,9.18,0,0,1-2.66-6.65A9.41,9.41,0,0,1,267,8.08a8.65,8.65,0,0,1,6.5-2.77,10.62,10.62,0,0,1,6.8,2.75.18.18,0,0,0,.22,0,.21.21,0,0,0,.12-.19V3.33a.2.2,0,0,0-.1-.18A13.3,13.3,0,0,0,273.8,1.24Zm36.44,26.19L298.72,13.56,310.16,2.1a.22.22,0,0,0,0-.23.21.21,0,0,0-.19-.13h-5.16a.2.2,0,0,0-.15.06l-9.61,9.86V2a.21.21,0,0,0-.21-.21H291a.21.21,0,0,0-.21.21V27.56a.22.22,0,0,0,.21.21h3.87a.22.22,0,0,0,.21-.21V17l.57-.57,9.07,11.22a.21.21,0,0,0,.17.08h5.17a.21.21,0,0,0,.19-.12A.22.22,0,0,0,310.24,27.43ZM242.41.25a.21.21,0,0,0-.19-.12h0a.21.21,0,0,0-.19.12L229.36,27.47a.2.2,0,0,0,0,.2.21.21,0,0,0,.17.1h4.17a.22.22,0,0,0,.19-.12l2.8-6.1h10.69L250,27.64a.22.22,0,0,0,.19.13h4.24a.21.21,0,0,0,.21-.21.24.24,0,0,0,0-.14ZM238.49,17.5l3.65-8,3.49,8ZM196.76,1.74H182.63a.21.21,0,0,0-.21.21V27.56a.21.21,0,0,0,.21.21h14.13a.21.21,0,0,0,.21-.21V23.93a.21.21,0,0,0-.21-.21H186.7V15.58h9.76a.21.21,0,0,0,.21-.21V11.73a.2.2,0,0,0-.21-.2H186.7V5.79h10.06a.21.21,0,0,0,.21-.21V2A.21.21,0,0,0,196.76,1.74Zm19.2,15a7.14,7.14,0,0,0,3.92-2.51,7.47,7.47,0,0,0,1.61-4.81,7.23,7.23,0,0,0-2.56-5.76c-1.54-1.3-4.05-2-7.47-2h-4.53a.21.21,0,0,0-.21.21V27.56a.22.22,0,0,0,.21.21h3.87a.21.21,0,0,0,.2-.21V17.28h.38l7.26,10.4a.22.22,0,0,0,.17.09h4.74a.21.21,0,0,0,.2-.21.19.19,0,0,0-.08-.16Zm-5-3.28V5.79h1.17c3.46,0,5.14,1.22,5.14,3.72,0,2.69-1.73,4-5.28,4Z"/></g></g></g></svg>